<svg id="Capa_1" enable-background="new 0 0 512 512" height="512" viewBox="0 0 512 512" width="512" xmlns="http://www.w3.org/2000/svg"><g><g fill="#00c2f3"><path d="m387 0v201c0 35.08-13.68 68.03-38.53 92.79-24.74 24.65-57.56 38.21-92.47 38.21h-.46c-71.98-.25-130.54-59.58-130.54-132.26v-107.35c0-50.94 41.45-92.39 92.39-92.39z"/><path d="m512 457.88v54.12h-512v-54.12c0-77.09 62.72-139.96 139.81-140.15l5.71-.02 4.28 3.8c29.28 25.97 66.8 40.35 105.66 40.49h.57c39.42 0 77.32-14.38 106.71-40.48l4.31-3.82 5.76.04c37.23.25 72.2 14.94 98.45 41.36 26.27 26.43 40.74 61.52 40.74 98.78z"/></g><g fill="#1e90ff"><path d="m512 457.88v54.12h-256v-150h.03c39.42 0 77.32-14.38 106.71-40.48l4.31-3.82 5.76.04c37.23.25 72.2 14.94 98.45 41.36 26.27 26.43 40.74 61.52 40.74 98.78z"/><path d="m387 0v201c0 35.08-13.68 68.03-38.53 92.79-24.74 24.65-57.56 38.21-92.47 38.21v-332z"/></g></g></svg>