<svg id="Capa_1" enable-background="new 0 0 512 512" height="512" viewBox="0 0 512 512" width="512" xmlns="http://www.w3.org/2000/svg" xmlns:xlink="http://www.w3.org/1999/xlink"><linearGradient id="lg1"><stop offset="0" stop-color="#0056e0"/><stop offset="1" stop-color="#85ffe0"/></linearGradient><linearGradient id="SVGID_1_" gradientUnits="userSpaceOnUse" x1="74.98" x2="437.019" xlink:href="#lg1" y1="437.019" y2="74.98"/><radialGradient id="SVGID_2_" cx="256" cy="256" gradientUnits="userSpaceOnUse" r="256"><stop offset="0" stop-color="#0072ff"/><stop offset="1" stop-color="#85ffe0" stop-opacity="0"/></radialGradient><linearGradient id="lg2"><stop offset="0" stop-color="#389fff"/><stop offset=".1139" stop-color="#45affa"/><stop offset=".5397" stop-color="#73e9e7"/><stop offset=".7447" stop-color="#85ffe0"/><stop offset=".8044" stop-color="#9dffe6"/><stop offset=".9298" stop-color="#dafff6"/><stop offset="1" stop-color="#fff"/></linearGradient><linearGradient id="SVGID_3_" gradientUnits="userSpaceOnUse" x1="-693.092" x2="470.5" xlink:href="#lg2" y1="1316.684" y2="153.092"/><linearGradient id="SVGID_4_" gradientUnits="userSpaceOnUse" x1="-170.483" x2="425.99" xlink:href="#lg2" y1="642.414" y2="45.941"/><linearGradient id="lg3"><stop offset="0" stop-color="#230be0"/><stop offset=".5" stop-color="#0056e0"/><stop offset="1" stop-color="#85ffe0"/></linearGradient><linearGradient id="SVGID_5_" gradientUnits="userSpaceOnUse" x1="-70.648" x2="436.13" xlink:href="#lg3" y1="602.734" y2="95.956"/><linearGradient id="SVGID_6_" gradientUnits="userSpaceOnUse" x1="33.818" x2="375.718" xlink:href="#lg3" y1="377.252" y2="35.352"/><linearGradient id="SVGID_7_" gradientUnits="userSpaceOnUse" x1="144.318" x2="297.97" xlink:href="#lg2" y1="236.464" y2="82.812"/><linearGradient id="SVGID_8_" gradientUnits="userSpaceOnUse" x1="173.976" x2="294.186" xlink:href="#lg2" y1="206.824" y2="86.613"/><linearGradient id="SVGID_9_" gradientUnits="userSpaceOnUse" x1="-381.125" x2="382.869" xlink:href="#lg2" y1="905.509" y2="141.515"/><linearGradient id="SVGID_10_" gradientUnits="userSpaceOnUse" x1="-189.708" x2="389.526" xlink:href="#lg2" y1="643.97" y2="64.737"/><linearGradient id="lg4"><stop offset="0" stop-color="#389fff"/><stop offset=".1074" stop-color="#45affa"/><stop offset=".5089" stop-color="#73e9e7"/><stop offset=".7022" stop-color="#85ffe0"/><stop offset=".8313" stop-color="#9dffe6"/><stop offset="1" stop-color="#c2fff0"/></linearGradient><linearGradient id="SVGID_11_" gradientUnits="userSpaceOnUse" x1="160.142" x2="512.923" xlink:href="#lg4" y1="418.463" y2="65.683"/><linearGradient id="SVGID_12_" gradientUnits="userSpaceOnUse" x1="139.534" x2="481.285" xlink:href="#lg4" y1="315.835" y2="-25.917"/><linearGradient id="lg5"><stop offset="0" stop-color="#73ecff"/><stop offset=".5" stop-color="#85ffe0"/><stop offset=".617" stop-color="#9dffe6"/><stop offset=".8626" stop-color="#dafff6"/><stop offset="1" stop-color="#fff"/></linearGradient><linearGradient id="SVGID_13_" gradientUnits="userSpaceOnUse" x1="-302.648" x2="366.506" xlink:href="#lg5" y1="978.171" y2="309.017"/><linearGradient id="SVGID_14_" gradientUnits="userSpaceOnUse" x1="-610.022" x2="398.593" xlink:href="#lg5" y1="1132.833" y2="124.218"/><linearGradient id="SVGID_15_" gradientUnits="userSpaceOnUse" x1="39.073" x2="450.205" xlink:href="#lg5" y1="622.524" y2="211.391"/><linearGradient id="SVGID_16_" gradientUnits="userSpaceOnUse" x1="109.471" x2="485.143" xlink:href="#lg5" y1="428.693" y2="53.021"/><linearGradient id="SVGID_17_" gradientUnits="userSpaceOnUse" x1="-23.184" x2="408.532" xlink:href="#lg1" y1="656.604" y2="224.888"/><linearGradient id="SVGID_18_" gradientUnits="userSpaceOnUse" x1="39.524" x2="390.76" xlink:href="#lg1" y1="539.884" y2="188.648"/><linearGradient id="SVGID_19_" gradientUnits="userSpaceOnUse" x1="-24.257" x2="408.377" xlink:href="#lg1" y1="687.909" y2="255.276"/><linearGradient id="SVGID_20_" gradientUnits="userSpaceOnUse" x1="39.63" x2="390.558" xlink:href="#lg1" y1="570.288" y2="219.36"/><linearGradient id="SVGID_21_" gradientUnits="userSpaceOnUse" x1="115.063" x2="277.455" xlink:href="#lg1" y1="372.868" y2="210.477"/><linearGradient id="SVGID_22_" gradientUnits="userSpaceOnUse" x1="128.083" x2="288.918" xlink:href="#lg1" y1="360.079" y2="199.244"/><linearGradient id="SVGID_23_" gradientUnits="userSpaceOnUse" x1="105.833" x2="261.366" xlink:href="#lg2" y1="184.993" y2="29.46"/><linearGradient id="SVGID_24_" gradientUnits="userSpaceOnUse" x1="120.223" x2="241.989" xlink:href="#lg2" y1="170.616" y2="48.85"/><linearGradient id="SVGID_25_" gradientUnits="userSpaceOnUse" x1="41.556" x2="196.287" xlink:href="#lg2" y1="294.069" y2="139.339"/><linearGradient id="SVGID_26_" gradientUnits="userSpaceOnUse" x1="85.594" x2="206.635" xlink:href="#lg2" y1="250.046" y2="129.006"/><g><circle cx="256" cy="256" fill="url(#SVGID_1_)" r="256"/><circle cx="256" cy="256" fill="url(#SVGID_2_)" r="256"/><g><path d="m407 112.885c-27.5-1.074-55-1.854-82.5-2.341 2.283 96.971 2.283 193.941 0 290.912 27.5-.487 55-1.267 82.5-2.341 8.275-.329 15.389-7.339 15.828-15.615 4.43-85 4.43-170 0-255-.439-8.276-7.553-15.285-15.828-15.615z" fill="url(#SVGID_3_)"/><path d="m339.916 385.881c2.228-86.587 2.228-173.175 0-259.762-.225-8.435-7.14-15.426-15.416-15.575-73.167-1.296-146.333-.516-219.5 2.341-8.275.329-15.389 7.338-15.828 15.615-4.43 85-4.43 170 0 255 .439 8.276 7.552 15.286 15.828 15.615 73.167 2.857 146.333 3.637 219.5 2.341 8.276-.149 15.192-7.14 15.416-15.575z" fill="url(#SVGID_4_)"/><path d="m407.753 127.95c-22.612-.786-45.224-1.396-67.837-1.831-9.263 30.367-19.087 60.905-29.171 91.541 33.207-10.106 66.304-20.009 99.183-29.451-.502-20.087-1.227-40.173-2.175-60.259z" fill="url(#SVGID_5_)"/><path d="m104.247 127.95c-.948 20.086-1.673 40.172-2.175 60.259 79.18 18.641 159.363 39.689 239.51 60.151-.062-40.747-.617-81.494-1.665-122.241-78.557-1.51-157.114-.9-235.67 1.831z" fill="url(#SVGID_6_)"/><path d="m239.787 156.085c-.027 8.491-6.876 15.386-15.302 15.424-8.427.035-15.193-6.787-15.096-15.26.097-8.472 6.964-15.41 15.32-15.464 8.355-.053 15.104 6.81 15.078 15.3z" fill="url(#SVGID_7_)"/><path d="m228.341 163.811c-8.414.035-15.169-6.79-15.073-15.266.01-.936.116-1.849.284-2.74-2.532 2.758-4.119 6.421-4.163 10.445-.097 8.474 6.67 15.296 15.096 15.26 7.495-.034 13.732-5.499 15.037-12.682-2.789 3.04-6.764 4.964-11.181 4.983z" fill="url(#SVGID_8_)"/><path d="m393.281 142.575c-17.665-.486-35.33-.878-52.994-1.176-4.931 5.008-9.891 10.035-14.876 15.078 5.149 5.164 10.309 10.326 15.477 15.482 17.791.219 35.582.506 53.373.863-.277-10.082-.603-20.165-.98-30.247z" fill="url(#SVGID_9_)"/><path d="m254.991 140.688c-.003 10.25-.005 20.5-.007 30.75 28.635-.004 57.27.17 85.904.522-.17-10.187-.37-20.373-.601-30.56-28.433-.481-56.864-.718-85.296-.712z" fill="url(#SVGID_10_)"/><path d="m409.928 188.209c-22.936-.416-45.873-.739-68.809-.969-9.778 30.458-19.982 61.071-30.315 91.765 33.352-20.519 66.732-40.913 99.709-60.666-.139-10.044-.334-20.087-.585-30.13z" fill="url(#SVGID_11_)"/><path d="m102.072 188.209c-.251 10.043-.446 20.086-.586 30.129 79.707 19.283 160.069 40.475 240.049 60.582.139-30.56 0-61.12-.416-91.681-79.682-.799-159.365-.476-239.047.97z" fill="url(#SVGID_12_)"/><path d="m341.443 217.8c-15.137 27.928-30.622 56.067-46.076 84.265 15.22 28.103 30.196 56.093 44.55 83.817 22.612-.435 45.224-1.045 67.837-1.831 2.607-55.237 3.527-110.475 2.761-165.712-23.025-.232-46.049-.412-69.072-.539z" fill="url(#SVGID_13_)"/><path d="m101.486 218.338c-.767 55.237.153 110.475 2.761 165.712 78.556 2.73 157.113 3.341 235.669 1.831 1.442-56.027 1.951-112.054 1.527-168.081-79.986-.444-159.971-.265-239.957.538z" fill="url(#SVGID_14_)"/><path d="m341.582 248.36c-15.347 17.81-30.803 35.744-46.215 53.705 15.263 17.867 30.395 35.651 45.244 53.256 12.666-.185 25.332-.411 37.999-.678 1.017-35.41 1.486-70.82 1.408-106.23-12.813-.022-25.625-.039-38.436-.053z" fill="url(#SVGID_15_)"/><path d="m131.983 248.412c-.078 35.41.391 70.82 1.408 106.23 69.073 1.459 138.146 1.685 207.219.678.702-35.654 1.025-71.307.971-106.961-69.865-.077-139.732-.059-209.598.053z" fill="url(#SVGID_16_)"/><path d="m356.901 278.864c-5.122.02-10.244.039-15.366.056-5.133 2.564-10.267 5.131-15.399 7.702 5.107 2.533 10.209 5.06 15.306 7.578 5.116-.028 10.233-.059 15.349-.093 4.238-.029 7.708-3.461 7.741-7.663s-3.388-7.594-7.631-7.58z" fill="url(#SVGID_17_)"/><path d="m247.293 279.061c-4.244-.002-7.68 3.439-7.675 7.682.006 4.245 3.446 7.69 7.684 7.692 31.38.018 62.76-.06 94.141-.235.039-5.094.069-10.187.093-15.28-31.415.105-62.829.152-94.243.141z" fill="url(#SVGID_18_)"/><path d="m356.628 309.35c-5.108.047-10.216.09-15.324.13-5.135 2.586-10.267 5.175-15.395 7.764 5.078 2.515 10.148 5.02 15.21 7.516 5.097-.051 10.194-.107 15.291-.167 4.221-.051 7.705-3.503 7.77-7.705.066-4.201-3.32-7.575-7.552-7.538z" fill="url(#SVGID_19_)"/><path d="m247.316 309.809c-4.232-.003-7.656 3.433-7.645 7.677s3.443 7.692 7.664 7.697c31.261.032 62.523-.109 93.784-.423.069-5.094.131-10.187.185-15.28-31.329.244-62.658.354-93.988.329z" fill="url(#SVGID_20_)"/><path d="m224.302 302.086c.045 21.216-16.915 38.351-37.941 38.125-21.021-.235-38.483-17.558-38.747-38.545-.254-20.988 16.952-38.006 38.178-38.011 21.23.008 38.446 17.212 38.51 38.431z" fill="url(#SVGID_21_)"/><path d="m193.78 321.129c-21.098-.168-38.512-17.435-38.659-38.453-.009-1.383.062-2.748.2-4.093-4.923 6.399-7.808 14.387-7.707 23.084.265 20.988 17.726 38.31 38.747 38.545 19.648.211 35.728-14.732 37.732-34-6.973 9.144-17.932 15.003-30.313 14.917z" fill="url(#SVGID_22_)"/><path d="m148.591 157.056c-.206 8.412-7.174 15.33-15.602 15.477-8.426.144-15.073-6.489-14.797-14.835s7.314-15.307 15.669-15.517c8.356-.209 14.934 6.464 14.73 14.875z" fill="url(#SVGID_23_)"/><path d="m136.988 164.872c-8.413.153-15.038-6.477-14.749-14.831.031-.922.158-1.826.347-2.707-2.596 2.764-4.266 6.399-4.394 10.364-.276 8.347 6.371 14.979 14.797 14.835 7.495-.132 13.827-5.622 15.279-12.757-2.851 3.054-6.863 5.013-11.28 5.096z" fill="url(#SVGID_24_)"/><path d="m194.189 156.392c-.117 8.466-7.025 15.387-15.452 15.478-8.426.091-15.133-6.649-14.947-15.075.187-8.424 7.139-15.386 15.494-15.518 8.356-.132 15.02 6.65 14.905 15.115z" fill="url(#SVGID_25_)"/><path d="m182.664 164.176c-8.414.095-15.104-6.646-14.911-15.076.021-.931.137-1.841.316-2.728-2.564 2.766-4.192 6.422-4.279 10.423-.186 8.426 6.521 15.167 14.947 15.075 7.495-.081 13.78-5.571 15.158-12.742-2.82 3.052-6.813 4.997-11.231 5.048z" fill="url(#SVGID_26_)"/></g></g></svg>